<mxfile host="app.diagrams.net" agent="Mozilla/5.0 (Windows NT 10.0; Win64; x64) AppleWebKit/537.36 (KHTML, like Gecko) Chrome/140.0.0.0 Safari/537.36" version="28.2.1">
  <diagram name="ページ1" id="K2FyeffVmmtm7ThccuYz">
    <mxGraphModel dx="1426" dy="777" grid="1" gridSize="10" guides="1" tooltips="1" connect="1" arrows="1" fold="1" page="1" pageScale="1" pageWidth="827" pageHeight="1169" math="0" shadow="0">
      <root>
        <mxCell id="0" />
        <mxCell id="1" parent="0" />
        <mxCell id="wIUnXmhEu6_nlEnnyhv--1" value="Actor" style="shape=umlActor;verticalLabelPosition=bottom;verticalAlign=top;html=1;outlineConnect=0;" vertex="1" parent="1">
          <mxGeometry x="120" y="160" width="40" height="80" as="geometry" />
        </mxCell>
        <mxCell id="wIUnXmhEu6_nlEnnyhv--2" value="システムメニュー&lt;span style=&quot;white-space: pre;&quot;&gt;&#x9;&lt;/span&gt;" style="shape=umlBoundary;whiteSpace=wrap;html=1;" vertex="1" parent="1">
          <mxGeometry x="300" y="40" width="100" height="80" as="geometry" />
        </mxCell>
        <mxCell id="wIUnXmhEu6_nlEnnyhv--4" value="時刻入力画面" style="shape=umlBoundary;whiteSpace=wrap;html=1;" vertex="1" parent="1">
          <mxGeometry x="300" y="320" width="100" height="80" as="geometry" />
        </mxCell>
        <mxCell id="wIUnXmhEu6_nlEnnyhv--5" value="画面表示" style="ellipse;shape=umlControl;whiteSpace=wrap;html=1;" vertex="1" parent="1">
          <mxGeometry x="570" y="160" width="70" height="80" as="geometry" />
        </mxCell>
        <mxCell id="wIUnXmhEu6_nlEnnyhv--6" value="" style="shape=waypoint;sketch=0;size=6;pointerEvents=1;points=[];fillColor=none;resizable=0;rotatable=0;perimeter=centerPerimeter;snapToPoint=1;" vertex="1" parent="1">
          <mxGeometry x="350" y="350" width="20" height="20" as="geometry" />
        </mxCell>
        <mxCell id="wIUnXmhEu6_nlEnnyhv--7" value="時刻に応じた画面表示" style="shape=umlBoundary;whiteSpace=wrap;html=1;" vertex="1" parent="1">
          <mxGeometry x="300" y="585" width="100" height="80" as="geometry" />
        </mxCell>
        <mxCell id="wIUnXmhEu6_nlEnnyhv--8" value="時刻の設定" style="ellipse;shape=umlControl;whiteSpace=wrap;html=1;" vertex="1" parent="1">
          <mxGeometry x="570" y="400" width="70" height="80" as="geometry" />
        </mxCell>
        <mxCell id="wIUnXmhEu6_nlEnnyhv--9" value="画面表示" style="ellipse;shape=umlControl;whiteSpace=wrap;html=1;" vertex="1" parent="1">
          <mxGeometry x="480" y="520" width="70" height="80" as="geometry" />
        </mxCell>
        <mxCell id="wIUnXmhEu6_nlEnnyhv--11" value="RoboDog" style="ellipse;shape=umlEntity;whiteSpace=wrap;html=1;" vertex="1" parent="1">
          <mxGeometry x="880" y="400" width="80" height="80" as="geometry" />
        </mxCell>
        <mxCell id="wIUnXmhEu6_nlEnnyhv--12" value="" style="endArrow=classic;html=1;rounded=0;entryX=-0.03;entryY=0.513;entryDx=0;entryDy=0;entryPerimeter=0;" edge="1" parent="1" source="wIUnXmhEu6_nlEnnyhv--1" target="wIUnXmhEu6_nlEnnyhv--2">
          <mxGeometry width="50" height="50" relative="1" as="geometry">
            <mxPoint x="390" y="420" as="sourcePoint" />
            <mxPoint x="440" y="370" as="targetPoint" />
          </mxGeometry>
        </mxCell>
        <mxCell id="wIUnXmhEu6_nlEnnyhv--14" value="" style="endArrow=classic;html=1;rounded=0;entryX=0.02;entryY=0.513;entryDx=0;entryDy=0;entryPerimeter=0;" edge="1" parent="1" source="wIUnXmhEu6_nlEnnyhv--1" target="wIUnXmhEu6_nlEnnyhv--4">
          <mxGeometry width="50" height="50" relative="1" as="geometry">
            <mxPoint x="270" y="324" as="sourcePoint" />
            <mxPoint x="407" y="220" as="targetPoint" />
          </mxGeometry>
        </mxCell>
        <mxCell id="wIUnXmhEu6_nlEnnyhv--15" value="" style="endArrow=classic;html=1;rounded=0;entryX=0.129;entryY=0.3;entryDx=0;entryDy=0;entryPerimeter=0;exitX=1;exitY=0.5;exitDx=0;exitDy=0;exitPerimeter=0;" edge="1" parent="1" source="wIUnXmhEu6_nlEnnyhv--2" target="wIUnXmhEu6_nlEnnyhv--5">
          <mxGeometry width="50" height="50" relative="1" as="geometry">
            <mxPoint x="400" y="264" as="sourcePoint" />
            <mxPoint x="537" y="160" as="targetPoint" />
          </mxGeometry>
        </mxCell>
        <mxCell id="wIUnXmhEu6_nlEnnyhv--16" value="" style="endArrow=classic;html=1;rounded=0;entryX=1;entryY=0.35;entryDx=0;entryDy=0;entryPerimeter=0;exitX=0.343;exitY=0.988;exitDx=0;exitDy=0;exitPerimeter=0;" edge="1" parent="1" source="wIUnXmhEu6_nlEnnyhv--5" target="wIUnXmhEu6_nlEnnyhv--4">
          <mxGeometry width="50" height="50" relative="1" as="geometry">
            <mxPoint x="510" y="344" as="sourcePoint" />
            <mxPoint x="647" y="240" as="targetPoint" />
          </mxGeometry>
        </mxCell>
        <mxCell id="wIUnXmhEu6_nlEnnyhv--17" value="" style="endArrow=classic;html=1;rounded=0;entryX=-0.043;entryY=0.475;entryDx=0;entryDy=0;entryPerimeter=0;exitX=1.01;exitY=0.525;exitDx=0;exitDy=0;exitPerimeter=0;" edge="1" parent="1" source="wIUnXmhEu6_nlEnnyhv--4" target="wIUnXmhEu6_nlEnnyhv--8">
          <mxGeometry width="50" height="50" relative="1" as="geometry">
            <mxPoint x="430" y="420" as="sourcePoint" />
            <mxPoint x="537" y="370" as="targetPoint" />
          </mxGeometry>
        </mxCell>
        <mxCell id="wIUnXmhEu6_nlEnnyhv--18" value="" style="endArrow=classic;html=1;rounded=0;entryX=0.829;entryY=0.213;entryDx=0;entryDy=0;entryPerimeter=0;exitX=0.271;exitY=1.013;exitDx=0;exitDy=0;exitPerimeter=0;" edge="1" parent="1" source="wIUnXmhEu6_nlEnnyhv--8" target="wIUnXmhEu6_nlEnnyhv--9">
          <mxGeometry width="50" height="50" relative="1" as="geometry">
            <mxPoint x="580" y="504" as="sourcePoint" />
            <mxPoint x="717" y="400" as="targetPoint" />
          </mxGeometry>
        </mxCell>
        <mxCell id="wIUnXmhEu6_nlEnnyhv--19" value="" style="endArrow=classic;html=1;rounded=0;entryX=1;entryY=0.413;entryDx=0;entryDy=0;entryPerimeter=0;exitX=0.114;exitY=0.888;exitDx=0;exitDy=0;exitPerimeter=0;" edge="1" parent="1" source="wIUnXmhEu6_nlEnnyhv--9" target="wIUnXmhEu6_nlEnnyhv--7">
          <mxGeometry width="50" height="50" relative="1" as="geometry">
            <mxPoint x="610" y="624" as="sourcePoint" />
            <mxPoint x="747" y="520" as="targetPoint" />
          </mxGeometry>
        </mxCell>
        <mxCell id="wIUnXmhEu6_nlEnnyhv--21" value="" style="endArrow=classic;html=1;rounded=0;exitX=1.057;exitY=0.513;exitDx=0;exitDy=0;exitPerimeter=0;entryX=0;entryY=0.5;entryDx=0;entryDy=0;" edge="1" parent="1" source="wIUnXmhEu6_nlEnnyhv--8" target="wIUnXmhEu6_nlEnnyhv--11">
          <mxGeometry width="50" height="50" relative="1" as="geometry">
            <mxPoint x="770" y="674" as="sourcePoint" />
            <mxPoint x="860" y="510" as="targetPoint" />
          </mxGeometry>
        </mxCell>
        <mxCell id="wIUnXmhEu6_nlEnnyhv--22" value="" style="endArrow=none;dashed=1;html=1;dashPattern=1 3;strokeWidth=2;rounded=0;" edge="1" parent="1">
          <mxGeometry width="50" height="50" relative="1" as="geometry">
            <mxPoint x="760" y="520" as="sourcePoint" />
            <mxPoint x="760" y="440" as="targetPoint" />
          </mxGeometry>
        </mxCell>
        <mxCell id="wIUnXmhEu6_nlEnnyhv--23" value="9:00～「おはよう」&lt;br&gt;&lt;div&gt;12:00～「こんにちは」&lt;/div&gt;&lt;div&gt;13:00～「こんばんは」&lt;/div&gt;" style="rounded=0;whiteSpace=wrap;html=1;" vertex="1" parent="1">
          <mxGeometry x="680" y="520" width="170" height="80" as="geometry" />
        </mxCell>
        <mxCell id="wIUnXmhEu6_nlEnnyhv--24" value="時刻の入力" style="text;html=1;align=center;verticalAlign=middle;resizable=0;points=[];autosize=1;strokeColor=none;fillColor=none;" vertex="1" parent="1">
          <mxGeometry x="250" y="280" width="80" height="30" as="geometry" />
        </mxCell>
        <mxCell id="wIUnXmhEu6_nlEnnyhv--25" value="時刻に対応した挨拶" style="text;html=1;align=center;verticalAlign=middle;resizable=0;points=[];autosize=1;strokeColor=none;fillColor=none;" vertex="1" parent="1">
          <mxGeometry x="120" y="100" width="130" height="30" as="geometry" />
        </mxCell>
        <mxCell id="wIUnXmhEu6_nlEnnyhv--26" value="時刻の設定" style="text;html=1;align=center;verticalAlign=middle;resizable=0;points=[];autosize=1;strokeColor=none;fillColor=none;" vertex="1" parent="1">
          <mxGeometry x="650" y="410" width="80" height="30" as="geometry" />
        </mxCell>
        <mxCell id="wIUnXmhEu6_nlEnnyhv--27" value="挨拶を受けとる" style="text;html=1;align=center;verticalAlign=middle;resizable=0;points=[];autosize=1;strokeColor=none;fillColor=none;" vertex="1" parent="1">
          <mxGeometry x="760" y="490" width="110" height="30" as="geometry" />
        </mxCell>
      </root>
    </mxGraphModel>
  </diagram>
</mxfile>
